<mxfile host="app.diagrams.net" agent="Mozilla/5.0 (Windows NT 10.0; Win64; x64) AppleWebKit/537.36 (KHTML, like Gecko) Chrome/139.0.0.0 Safari/537.36" version="28.1.0">
  <diagram name="Halaman-1" id="h2yxPAZF6R05EjaXrAOo">
    <mxGraphModel dx="786" dy="497" grid="1" gridSize="10" guides="1" tooltips="1" connect="1" arrows="1" fold="1" page="1" pageScale="1" pageWidth="827" pageHeight="1169" background="#ffffff" math="0" shadow="0">
      <root>
        <mxCell id="0" />
        <mxCell id="1" parent="0" />
        <mxCell id="9b46O00tbUOQ47KJX_Dd-76" value="" style="edgeStyle=orthogonalEdgeStyle;rounded=0;orthogonalLoop=1;jettySize=auto;html=1;" edge="1" parent="1" source="9b46O00tbUOQ47KJX_Dd-78" target="9b46O00tbUOQ47KJX_Dd-85">
          <mxGeometry relative="1" as="geometry" />
        </mxCell>
        <mxCell id="9b46O00tbUOQ47KJX_Dd-77" style="edgeStyle=orthogonalEdgeStyle;rounded=0;orthogonalLoop=1;jettySize=auto;html=1;entryX=0.5;entryY=0;entryDx=0;entryDy=0;" edge="1" parent="1" source="9b46O00tbUOQ47KJX_Dd-78" target="9b46O00tbUOQ47KJX_Dd-81">
          <mxGeometry relative="1" as="geometry" />
        </mxCell>
        <mxCell id="9b46O00tbUOQ47KJX_Dd-78" value="Masukan Email dan passsword" style="shape=parallelogram;perimeter=parallelogramPerimeter;whiteSpace=wrap;html=1;fixedSize=1;" vertex="1" parent="1">
          <mxGeometry x="770" y="1410" width="144" height="80" as="geometry" />
        </mxCell>
        <mxCell id="9b46O00tbUOQ47KJX_Dd-79" value="" style="edgeStyle=orthogonalEdgeStyle;rounded=0;orthogonalLoop=1;jettySize=auto;html=1;" edge="1" parent="1" source="9b46O00tbUOQ47KJX_Dd-81" target="9b46O00tbUOQ47KJX_Dd-83">
          <mxGeometry relative="1" as="geometry" />
        </mxCell>
        <mxCell id="9b46O00tbUOQ47KJX_Dd-80" value="" style="edgeStyle=orthogonalEdgeStyle;rounded=0;orthogonalLoop=1;jettySize=auto;html=1;" edge="1" parent="1" source="9b46O00tbUOQ47KJX_Dd-81" target="9b46O00tbUOQ47KJX_Dd-90">
          <mxGeometry relative="1" as="geometry" />
        </mxCell>
        <mxCell id="9b46O00tbUOQ47KJX_Dd-81" value="Apakah email dan password sesuai?" style="rhombus;whiteSpace=wrap;html=1;" vertex="1" parent="1">
          <mxGeometry x="770" y="1565" width="144" height="110" as="geometry" />
        </mxCell>
        <mxCell id="9b46O00tbUOQ47KJX_Dd-113" style="edgeStyle=orthogonalEdgeStyle;rounded=0;orthogonalLoop=1;jettySize=auto;html=1;entryX=1;entryY=0.5;entryDx=0;entryDy=0;" edge="1" parent="1" source="9b46O00tbUOQ47KJX_Dd-83" target="9b46O00tbUOQ47KJX_Dd-78">
          <mxGeometry relative="1" as="geometry">
            <Array as="points">
              <mxPoint x="1170" y="1620" />
              <mxPoint x="1170" y="1450" />
            </Array>
          </mxGeometry>
        </mxCell>
        <mxCell id="9b46O00tbUOQ47KJX_Dd-83" value="Tampilkan jika salah" style="shape=parallelogram;perimeter=parallelogramPerimeter;whiteSpace=wrap;html=1;fixedSize=1;" vertex="1" parent="1">
          <mxGeometry x="960" y="1585" width="156" height="70" as="geometry" />
        </mxCell>
        <mxCell id="9b46O00tbUOQ47KJX_Dd-84" value="" style="edgeStyle=orthogonalEdgeStyle;rounded=0;orthogonalLoop=1;jettySize=auto;html=1;" edge="1" parent="1" source="9b46O00tbUOQ47KJX_Dd-85" target="9b46O00tbUOQ47KJX_Dd-86">
          <mxGeometry relative="1" as="geometry" />
        </mxCell>
        <mxCell id="9b46O00tbUOQ47KJX_Dd-85" value="Login" style="whiteSpace=wrap;html=1;" vertex="1" parent="1">
          <mxGeometry x="782" y="1260" width="120" height="60" as="geometry" />
        </mxCell>
        <mxCell id="9b46O00tbUOQ47KJX_Dd-86" value="Mulai" style="rounded=1;whiteSpace=wrap;html=1;arcSize=50;" vertex="1" parent="1">
          <mxGeometry x="782" y="1120" width="120" height="60" as="geometry" />
        </mxCell>
        <mxCell id="9b46O00tbUOQ47KJX_Dd-89" value="" style="edgeStyle=orthogonalEdgeStyle;rounded=0;orthogonalLoop=1;jettySize=auto;html=1;" edge="1" parent="1" source="9b46O00tbUOQ47KJX_Dd-90" target="9b46O00tbUOQ47KJX_Dd-94">
          <mxGeometry relative="1" as="geometry" />
        </mxCell>
        <mxCell id="9b46O00tbUOQ47KJX_Dd-90" value="Ke halaman petugas" style="whiteSpace=wrap;html=1;" vertex="1" parent="1">
          <mxGeometry x="782" y="1715" width="120" height="60" as="geometry" />
        </mxCell>
        <mxCell id="9b46O00tbUOQ47KJX_Dd-93" value="" style="edgeStyle=orthogonalEdgeStyle;rounded=0;orthogonalLoop=1;jettySize=auto;html=1;" edge="1" parent="1" source="9b46O00tbUOQ47KJX_Dd-94" target="9b46O00tbUOQ47KJX_Dd-96">
          <mxGeometry relative="1" as="geometry" />
        </mxCell>
        <mxCell id="9b46O00tbUOQ47KJX_Dd-94" value="Lihat laporan" style="shape=parallelogram;perimeter=parallelogramPerimeter;whiteSpace=wrap;html=1;fixedSize=1;" vertex="1" parent="1">
          <mxGeometry x="782" y="1855" width="120" height="60" as="geometry" />
        </mxCell>
        <mxCell id="9b46O00tbUOQ47KJX_Dd-95" value="" style="edgeStyle=orthogonalEdgeStyle;rounded=0;orthogonalLoop=1;jettySize=auto;html=1;" edge="1" parent="1" source="9b46O00tbUOQ47KJX_Dd-96" target="9b46O00tbUOQ47KJX_Dd-98">
          <mxGeometry relative="1" as="geometry" />
        </mxCell>
        <mxCell id="9b46O00tbUOQ47KJX_Dd-96" value="Lihat daftar laporan masuk" style="rounded=1;whiteSpace=wrap;html=1;" vertex="1" parent="1">
          <mxGeometry x="782" y="1995" width="120" height="60" as="geometry" />
        </mxCell>
        <mxCell id="9b46O00tbUOQ47KJX_Dd-97" value="" style="edgeStyle=orthogonalEdgeStyle;rounded=0;orthogonalLoop=1;jettySize=auto;html=1;" edge="1" parent="1" source="9b46O00tbUOQ47KJX_Dd-98" target="9b46O00tbUOQ47KJX_Dd-100">
          <mxGeometry relative="1" as="geometry" />
        </mxCell>
        <mxCell id="9b46O00tbUOQ47KJX_Dd-98" value="Pilih laporan berdasarkan kategori/wilayah" style="rounded=1;whiteSpace=wrap;html=1;" vertex="1" parent="1">
          <mxGeometry x="782" y="2135" width="120" height="60" as="geometry" />
        </mxCell>
        <mxCell id="9b46O00tbUOQ47KJX_Dd-99" value="" style="edgeStyle=orthogonalEdgeStyle;rounded=0;orthogonalLoop=1;jettySize=auto;html=1;" edge="1" parent="1" source="9b46O00tbUOQ47KJX_Dd-100" target="9b46O00tbUOQ47KJX_Dd-103">
          <mxGeometry relative="1" as="geometry" />
        </mxCell>
        <mxCell id="9b46O00tbUOQ47KJX_Dd-100" value="Kirim tanggapan" style="rounded=1;whiteSpace=wrap;html=1;" vertex="1" parent="1">
          <mxGeometry x="782" y="2275" width="120" height="60" as="geometry" />
        </mxCell>
        <mxCell id="9b46O00tbUOQ47KJX_Dd-101" value="" style="edgeStyle=orthogonalEdgeStyle;rounded=0;orthogonalLoop=1;jettySize=auto;html=1;" edge="1" parent="1" source="9b46O00tbUOQ47KJX_Dd-103" target="9b46O00tbUOQ47KJX_Dd-105">
          <mxGeometry relative="1" as="geometry" />
        </mxCell>
        <mxCell id="9b46O00tbUOQ47KJX_Dd-102" value="" style="edgeStyle=orthogonalEdgeStyle;rounded=0;orthogonalLoop=1;jettySize=auto;html=1;" edge="1" parent="1" source="9b46O00tbUOQ47KJX_Dd-103" target="9b46O00tbUOQ47KJX_Dd-107">
          <mxGeometry relative="1" as="geometry" />
        </mxCell>
        <mxCell id="9b46O00tbUOQ47KJX_Dd-103" value="Ubah&lt;div&gt;status&lt;/div&gt;" style="rhombus;whiteSpace=wrap;html=1;rounded=1;" vertex="1" parent="1">
          <mxGeometry x="777.5" y="2402" width="129" height="129" as="geometry" />
        </mxCell>
        <mxCell id="9b46O00tbUOQ47KJX_Dd-114" style="edgeStyle=orthogonalEdgeStyle;rounded=0;orthogonalLoop=1;jettySize=auto;html=1;entryX=1;entryY=0.5;entryDx=0;entryDy=0;" edge="1" parent="1" source="9b46O00tbUOQ47KJX_Dd-105" target="9b46O00tbUOQ47KJX_Dd-100">
          <mxGeometry relative="1" as="geometry">
            <Array as="points">
              <mxPoint x="1060" y="2305" />
            </Array>
          </mxGeometry>
        </mxCell>
        <mxCell id="9b46O00tbUOQ47KJX_Dd-105" value="Tidak" style="shape=parallelogram;perimeter=parallelogramPerimeter;whiteSpace=wrap;html=1;fixedSize=1;rounded=1;" vertex="1" parent="1">
          <mxGeometry x="991" y="2436.5" width="120" height="60" as="geometry" />
        </mxCell>
        <mxCell id="9b46O00tbUOQ47KJX_Dd-106" value="" style="edgeStyle=orthogonalEdgeStyle;rounded=0;orthogonalLoop=1;jettySize=auto;html=1;" edge="1" parent="1" source="9b46O00tbUOQ47KJX_Dd-107" target="9b46O00tbUOQ47KJX_Dd-111">
          <mxGeometry relative="1" as="geometry" />
        </mxCell>
        <mxCell id="9b46O00tbUOQ47KJX_Dd-107" value="YA" style="shape=parallelogram;perimeter=parallelogramPerimeter;whiteSpace=wrap;html=1;fixedSize=1;rounded=1;" vertex="1" parent="1">
          <mxGeometry x="782" y="2645.5" width="120" height="60" as="geometry" />
        </mxCell>
        <mxCell id="9b46O00tbUOQ47KJX_Dd-110" value="" style="edgeStyle=orthogonalEdgeStyle;rounded=0;orthogonalLoop=1;jettySize=auto;html=1;" edge="1" parent="1" source="9b46O00tbUOQ47KJX_Dd-111" target="9b46O00tbUOQ47KJX_Dd-112">
          <mxGeometry relative="1" as="geometry" />
        </mxCell>
        <mxCell id="9b46O00tbUOQ47KJX_Dd-111" value="Update status" style="rounded=1;whiteSpace=wrap;html=1;" vertex="1" parent="1">
          <mxGeometry x="782" y="2785.5" width="120" height="60" as="geometry" />
        </mxCell>
        <mxCell id="9b46O00tbUOQ47KJX_Dd-112" value="Selesai" style="whiteSpace=wrap;html=1;rounded=1;arcSize=50;" vertex="1" parent="1">
          <mxGeometry x="782" y="2925.5" width="120" height="60" as="geometry" />
        </mxCell>
      </root>
    </mxGraphModel>
  </diagram>
</mxfile>
